<?xml version="1.0" encoding="UTF-8"?>
<svg version="1.1" xmlns="http://www.w3.org/2000/svg" width="1024" height="1024">
<path d="M0 0 C337.92 0 675.84 0 1024 0 C1024 337.92 1024 675.84 1024 1024 C686.08 1024 348.16 1024 0 1024 C0 686.08 0 348.16 0 0 Z " fill="#D55E44" transform="translate(0,0)"/>
<path d="M0 0 C337.92 0 675.84 0 1024 0 C1024 337.92 1024 675.84 1024 1024 C686.08 1024 348.16 1024 0 1024 C0 686.08 0 348.16 0 0 Z M516.93896484 99.046875 C485.59451138 99.41513684 455.0083247 103.83441387 425 113 C423.36499398 113.4818643 421.72954259 113.96221892 420.09375 114.44140625 C379.85081204 126.28108747 342.85650786 144.76232809 308 168 C308 168.66 308 169.32 308 170 C307.34 170 306.68 170 306 170 C307.80884414 162.63542029 311.29445892 157.18932325 315.59521484 151.05444336 C318.12370523 147.8357269 318.12370523 147.8357269 319 144 C314.65536086 145.46159764 311.35947092 147.80194396 307.8125 150.625 C306.95821411 151.29486938 306.95821411 151.29486938 306.08666992 151.97827148 C304.93061085 152.88656891 303.77669202 153.79759742 302.625 154.71142578 C301.18271152 155.85511548 299.73253463 156.98884152 298.28125 158.12109375 C293.16857856 162.14165974 288.27943229 166.35243791 283.48046875 170.7421875 C281.89666783 172.18382046 280.2964592 173.60776466 278.67578125 175.0078125 C261.97510537 189.52773896 247.67940681 206.91939573 235 225 C213.03714684 214.837364 195.80935652 184.44886805 187 163 C176.73082694 167.12580463 169.02805155 184.9190378 164.85595703 194.67529297 C161.16019709 203.87408883 157.48821347 213.20660291 156.40893555 223.12158203 C155.99628079 226.02617876 155.27344638 228.68147999 154.48046875 231.50390625 C152.24924157 241.03586474 152.54691957 250.63472218 152.625 260.375 C152.62832336 261.35155548 152.63164673 262.32811096 152.6350708 263.33425903 C152.69732446 278.89304358 152.82396971 294.70356993 157.06640625 309.79296875 C157.95197226 313.180358 158.4928914 315.53098337 158 319 C155.49986086 322.64699195 152.67783724 325.53115613 149.48828125 328.5703125 C145.90733811 331.98403281 142.97713904 335.70007457 140.0625 339.6875 C139.32664673 340.68789307 139.32664673 340.68789307 138.57592773 341.70849609 C137.56454868 343.09034788 136.55653616 344.47466939 135.55175781 345.86132812 C133.95923377 348.05618505 132.3517309 350.23947569 130.7421875 352.421875 C125.1906521 359.98537075 119.81089151 367.63909775 114.6875 375.5 C114.21304443 376.22437256 113.73858887 376.94874512 113.24975586 377.69506836 C110.83978066 381.07480145 110.83978066 381.07480145 110 385 C110.72445312 384.79503906 111.44890625 384.59007812 112.1953125 384.37890625 C113.16210938 384.10949219 114.12890625 383.84007812 115.125 383.5625 C116.55199219 383.16224609 116.55199219 383.16224609 118.0078125 382.75390625 C120.99276111 382.0018239 123.95832956 381.46482501 127 381 C126.41992188 382.06476563 125.83984375 383.12953125 125.2421875 384.2265625 C120.33107044 393.31950628 115.84549968 402.39756109 112 412 C111.58234375 413.04285156 111.1646875 414.08570313 110.734375 415.16015625 C109.45475777 418.42803948 108.21998491 421.70939851 107 425 C106.76812988 425.61649414 106.53625977 426.23298828 106.29736328 426.86816406 C94.92359635 457.17640484 94.92359635 457.17640484 92 489 C95.92962867 485.28202099 99.08640793 481.36159958 102.1875 476.9375 C102.62513672 476.32583984 103.06277344 475.71417969 103.51367188 475.08398438 C105.58829277 472.15417625 107.53390779 469.28437417 109 466 C109.66 466 110.32 466 111 466 C110.54166667 467.83333333 110.08333333 469.66666667 109.625 471.5 C109.35042969 472.60214844 109.07585937 473.70429688 108.79296875 474.83984375 C108.34486685 476.62562914 107.89246551 478.41038672 107.42578125 480.19140625 C104.90655629 489.84507629 103.64969624 499.49771766 102.9375 509.4375 C102.78299244 511.54059047 102.6255624 513.64346881 102.46484375 515.74609375 C102.399021 516.66060303 102.33319824 517.5751123 102.26538086 518.51733398 C102 521 102 521 101.48364258 522.84545898 C100.74977205 526.11472066 100.81710907 529.39178765 100.796875 532.7265625 C100.78986069 533.49435532 100.78284637 534.26214813 100.77561951 535.0532074 C100.75795156 537.57719689 100.75174904 540.10095058 100.75 542.625 C100.74932526 543.49091766 100.74865051 544.35683533 100.74795532 545.24899292 C100.77907274 570.55036035 102.30242306 595.48633893 109 620 C109.66 620 110.32 620 111 620 C111.08636719 619.35160156 111.17273438 618.70320312 111.26171875 618.03515625 C112.42795774 609.89288224 113.93202916 601.82341831 115.5 593.75 C115.71358154 592.61828369 115.92716309 591.48656738 116.1472168 590.32055664 C116.35644775 589.2608667 116.56567871 588.20117676 116.78125 587.109375 C116.96751953 586.14999023 117.15378906 585.19060547 117.34570312 584.20214844 C117.56162109 583.47543945 117.77753906 582.74873047 118 582 C118.66 581.67 119.32 581.34 120 581 C119.98114746 581.70527832 119.96229492 582.41055664 119.94287109 583.13720703 C119.82362674 591.1763732 120.51066374 598.91874622 121.625 606.875 C121.8003125 608.13787842 121.975625 609.40075684 122.15625 610.7019043 C123.72095134 621.30449743 126.24745059 631.41375915 129.32128906 641.66455078 C130.29132266 645.00244337 131.07921537 648.36615475 131.875 651.75 C138.5277996 678.46981555 147.89351354 704.3019116 160.1875 728.9375 C160.74518066 730.05560059 161.30286133 731.17370117 161.87744141 732.32568359 C167.13461096 742.62887283 172.94597065 752.80838599 180 762 C180.33 762 180.66 762 181 762 C180.48360678 755.80328137 179.3341014 750.08280539 177.765625 744.0703125 C176.27424936 738.08959183 175 732.1736032 175 726 C175.69222656 727.41925781 175.69222656 727.41925781 176.3984375 728.8671875 C184.82463931 746.01393707 194.0675228 762.31910715 205 778 C205.53560547 778.76908691 206.07121094 779.53817383 206.62304688 780.33056641 C213.16638238 789.67290899 219.96633678 798.62677098 227.47998047 807.20898438 C228.65351779 808.59174534 229.79815948 809.99906226 230.93017578 811.41601562 C236.23187801 818.04935773 241.87868888 824.19138516 247.90136719 830.16210938 C249.37412523 831.62413161 250.83585045 833.09657488 252.296875 834.5703125 C258.53294813 840.81519161 265.092973 846.50220127 272 852 C273.13244649 852.94605654 274.26098287 853.89684666 275.3828125 854.85546875 C284.20934438 863.49464272 284.20934438 863.49464272 295 868 C293.31294217 862.856531 290.26907237 858.68288187 287.25 854.25 C286.21354167 852.71354167 285.17708333 851.17708333 284.140625 849.640625 C283.62822266 848.88458984 283.11582031 848.12855469 282.58789062 847.34960938 C280.03968648 843.57901948 277.51969632 839.7896773 275 836 C282.29526185 842.33031744 282.29526185 842.33031744 285.27734375 845.1640625 C326.45506153 884.06497124 399.07048409 929.47425657 457 934 C452.62507227 929.21831246 447.5758194 925.72203123 442.25 922.0625 C441.3940625 921.46759766 440.538125 920.87269531 439.65625 920.25976562 C434.14736927 916.44110967 428.59002698 912.69868361 423 909 C423.65339355 909.18175781 424.30678711 909.36351562 424.97998047 909.55078125 C440.88532253 913.93691058 457.02345373 918.24456062 473.37011719 920.61279297 C475.2923821 920.89581489 477.21202123 921.19683527 479.12988281 921.50830078 C528.60800526 929.39141954 582.21761534 927.66211637 631 916 C632.5454248 915.63986816 632.5454248 915.63986816 634.12207031 915.27246094 C646.29053188 912.42262582 658.2538534 909.28537645 670 905 C670.97453125 904.65839844 671.9490625 904.31679688 672.953125 903.96484375 C680.67366813 901.14543075 688.140284 897.76282464 695.625 894.375 C696.69355225 893.89530762 697.76210449 893.41561523 698.86303711 892.92138672 C699.86987549 892.46006348 700.87671387 891.99874023 701.9140625 891.5234375 C702.8210791 891.11013184 703.7280957 890.69682617 704.66259766 890.27099609 C706.88588793 889.06205007 708.33800571 887.88716328 710 886 C705.23244861 885.84620802 701.04855802 885.94588762 696.37890625 886.9375 C690.87963609 888.0873474 685.40576439 888.65406953 679.8125 889.125 C678.86697266 889.21136719 677.92144531 889.29773438 676.94726562 889.38671875 C671.94361516 889.82606367 667.02237285 890.09725203 662 890 C662.64437012 889.80889648 663.28874023 889.61779297 663.95263672 889.42089844 C666.92821562 888.5354173 669.90159436 887.64275047 672.875 886.75 C673.88820313 886.44964844 674.90140625 886.14929688 675.9453125 885.83984375 C682.45481208 883.87864836 688.72475591 881.60762259 695 879 C696.65029854 878.34318184 698.30134835 877.68824831 699.953125 877.03515625 C744.62008245 859.14922531 786.26367681 835.57213325 820.6875 801.625 C821.47882324 800.85140137 822.27014648 800.07780273 823.08544922 799.28076172 C824.19364014 798.17112061 824.19364014 798.17112061 825.32421875 797.0390625 C825.98510498 796.38115723 826.64599121 795.72325195 827.3269043 795.04541016 C829.16003847 792.80434812 830.06578734 790.72594666 831 788 C829.79988281 788.54527344 828.59976563 789.09054687 827.36328125 789.65234375 C818.15068212 793.82554848 808.91565343 797.94071318 799.625 801.9375 C798.75270752 802.31447021 797.88041504 802.69144043 796.98168945 803.07983398 C792.70214411 804.91201824 788.45103334 806.61539516 784 808 C784.83660156 807.35675781 785.67320312 806.71351563 786.53515625 806.05078125 C809.04104342 788.6290849 832.12512516 769.22561332 849.7734375 746.78515625 C851.4076401 744.74096949 853.05922968 742.76825222 854.7890625 740.80859375 C875.56672203 717.26691806 893.05206118 689.16759146 904.27832031 659.83398438 C905.36994501 657.05986911 906.60383511 654.34973588 907.8125 651.625 C910.09784529 646.19730493 911.23192126 640.8236418 912 635 C908.59149911 638.08895393 905.92824327 641.38081591 903.25 645.125 C895.1227225 656.48489068 886.04483821 667.27918883 876 677 C876.36859131 676.40429199 876.73718262 675.80858398 877.11694336 675.19482422 C880.9119812 668.97817931 884.33217829 662.65092558 887.5625 656.125 C888.04211182 655.16045898 888.52172363 654.19591797 889.01586914 653.20214844 C892.29149558 646.56250121 895.32914626 639.90775023 898 633 C898.66532741 631.33279825 899.33197854 629.66612411 900 628 C900.30131836 627.23961426 900.60263672 626.47922852 900.91308594 625.69580078 C902.03657239 622.90929192 903.21050496 620.14743948 904.38671875 617.3828125 C913.13409784 596.3775719 918.21521647 574.17467138 923 552 C923.25410645 550.82711426 923.50821289 549.65422852 923.77001953 548.44580078 C929.69692315 520.46702644 932.36891775 492.38546824 932.375 463.8125 C932.37690338 462.85225922 932.37880676 461.89201843 932.38076782 460.90267944 C932.37796437 448.46458198 931.63664582 436.32771283 930 424 C929.86916016 422.94675537 929.73832031 421.89351074 929.60351562 420.80834961 C928.07669782 406.09784821 928.07669782 406.09784821 924 392 C923.34 391.67 922.68 391.34 922 391 C920.35 404.53 918.7 418.06 917 432 C916.319375 425.915625 915.63875 419.83125 914.9375 413.5625 C911.14781318 381.5318418 904.45515718 350.22197371 893 320 C892.70367676 319.21802246 892.40735352 318.43604492 892.10205078 317.63037109 C882.29554965 291.99315741 870.01705353 267.37626587 854 245 C853.32066406 244.04867187 852.64132812 243.09734375 851.94140625 242.1171875 C847.72669053 236.36233502 843.28506423 230.82671816 838.6875 225.375 C838.18379883 224.77059082 837.68009766 224.16618164 837.16113281 223.54345703 C834.69284183 220.66048657 832.61733014 218.3232039 829 217 C830.20282193 220.86581373 831.60723769 224.27520209 833.5625 227.8125 C836.91987439 234.36896067 839.38852994 241.19787969 841.875 248.125 C842.28049072 249.25268799 842.68598145 250.38037598 843.10375977 251.54223633 C846 259.7228883 846 259.7228883 846 262 C845.42894531 261.05382812 844.85789062 260.10765625 844.26953125 259.1328125 C832.36200261 239.62095864 818.69530824 221.22405915 803.1953125 204.40625 C801.36570685 202.40084594 799.59109476 200.36539006 797.8203125 198.30859375 C793.652788 193.5363391 789.23114197 189.03915455 784.75 184.5625 C783.48712158 183.30083008 783.48712158 183.30083008 782.19873047 182.01367188 C777.18288066 177.04710126 772.14695437 172.34732847 766.5703125 168.015625 C764.16689983 166.13088193 761.87492678 164.15143638 759.58300781 162.13378906 C747.75566349 151.79489522 734.37744279 143.1945592 721 135 C720.29230469 134.55785156 719.58460938 134.11570313 718.85546875 133.66015625 C717.27640221 132.70499787 715.64358992 131.83927996 714 131 C713.34 131.33 712.68 131.66 712 132 C712.54938232 132.53890869 713.09876465 133.07781738 713.66479492 133.63305664 C716.17773782 136.10413924 718.6826435 138.5832219 721.1875 141.0625 C722.05181641 141.91005859 722.91613281 142.75761719 723.80664062 143.63085938 C728.38439001 148.17353022 732.46226649 152.60184349 736 158 C735.5145874 157.69932617 735.0291748 157.39865234 734.52905273 157.08886719 C717.76831681 146.7547399 700.614388 136.78630958 682.328125 129.37890625 C680.4455649 128.59892536 678.57106423 127.79607669 676.73071289 126.92114258 C668.68291357 123.10404907 660.40198896 120.27601454 651.9375 117.5625 C651.19488922 117.32288544 650.45227844 117.08327087 649.68716431 116.83639526 C636.8881148 112.72388853 624.03555287 109.28550717 610.85791016 106.58789062 C608.18392551 106.03783467 605.52010296 105.45277948 602.85546875 104.859375 C576.5726563 99.20159145 549.84183442 98.43848223 523.07281494 98.96289062 C521.02821081 98.99949494 518.98377675 99.02512102 516.93896484 99.046875 Z " fill="#29578E" transform="translate(0,0)"/>
<path d="M0 0 C0.74277191 0.00409882 1.48554382 0.00819763 2.25082397 0.01242065 C45.99735685 0.29344263 88.51379862 9.33739964 128.5 27.25 C129.44037109 27.67007324 130.38074219 28.09014648 131.34960938 28.52294922 C156.45977827 39.86288986 179.69650618 54.14619622 200.5 72.25 C201.18964844 72.84039062 201.87929688 73.43078125 202.58984375 74.0390625 C214.91868817 84.67867875 227.04503538 95.65328378 237.21875 108.40625 C239.59046885 111.36277623 242.04092527 114.24090001 244.5 117.125 C258.5 133.88989028 258.5 133.88989028 258.5 138.25 C254.21 138.25 249.92 138.25 245.5 138.25 C245.5 141.22 245.5 144.19 245.5 147.25 C246.8509375 147.09917969 248.201875 146.94835937 249.59375 146.79296875 C263.36840041 145.68661768 263.36840041 145.68661768 268.15234375 149.1953125 C269.87734574 151.96588463 271.22463939 154.73759204 272.44775391 157.76123047 C273.72152688 160.77395475 275.17066272 163.67370565 276.63671875 166.59765625 C282.45323499 178.25123599 288.11772123 189.97299219 292.5 202.25 C292.82919434 203.14428711 293.15838867 204.03857422 293.49755859 204.95996094 C300.35889397 223.7386708 304.83147141 242.63922372 308.5 262.25 C308.79608154 263.80678467 308.79608154 263.80678467 309.09814453 265.39501953 C316.69980298 307.68317837 313.14712022 355.12720682 301.5 396.25 C300.98421517 398.14543612 300.46988731 400.04126933 299.95703125 401.9375 C297.59377621 410.56190529 295.06729436 419.02534821 291.6875 427.31640625 C290.90799195 429.24209884 290.17675041 431.18818143 289.5 433.15234375 C286.80849884 440.84093345 283.19432835 447.84823736 279.3125 455 C278.77681396 455.98991943 278.24112793 456.97983887 277.68920898 457.99975586 C273.75604059 465.1219797 273.75604059 465.1219797 271.5 466.25 C271.5314209 465.14265503 271.5314209 465.14265503 271.56347656 464.01293945 C271.92331753 449.32209037 271.64069747 435.51471824 268.375 421.15234375 C267.5 417.25 267.5 417.25 267.5 414.25 C266.84 414.25 266.18 414.25 265.5 414.25 C265.46261719 414.83265625 265.42523437 415.4153125 265.38671875 416.015625 C264.82626483 423.0048151 263.37433547 429.50394134 261.5 436.25 C261.22881348 437.2397583 261.22881348 437.2397583 260.95214844 438.24951172 C258.38806581 447.54912693 255.45848916 456.43617648 251.5 465.25 C250.83243744 466.78997653 250.1658529 468.33037722 249.5 469.87109375 C229.80548333 515.0198031 196.9901447 552.92077794 154.5 578.25 C153.51 578.58 152.52 578.91 151.5 579.25 C153.63102399 574.50907022 156.75300894 570.35357159 159.69140625 566.08984375 C163.9405547 559.82458283 167.31566637 553.53111211 169.5 546.25 C169.02280518 546.60191406 168.54561035 546.95382812 168.05395508 547.31640625 C158.43809019 554.38781151 148.85965746 561.29734849 138.5 567.25 C136.85451172 568.21292969 136.85451172 568.21292969 135.17578125 569.1953125 C90.59714965 594.56019865 37.2163538 599.67801448 -12.25 588.8125 C-13.57136963 588.52306519 -13.57136963 588.52306519 -14.91943359 588.2277832 C-21.03995259 586.79872999 -26.7284998 584.72933901 -32.5 582.25 C-32.5 581.92 -32.5 581.59 -32.5 581.25 C-31.9423999 581.21036133 -31.3847998 581.17072266 -30.81030273 581.12988281 C-15.24723153 579.97244434 -1.37644304 577.72868755 13.01171875 571.30078125 C15.18014791 570.38507098 17.2040429 569.73930233 19.5 569.25 C19.5 568.59 19.5 567.93 19.5 567.25 C18.57703125 567.28480469 17.6540625 567.31960938 16.703125 567.35546875 C-28.03094967 568.283745 -75.00249215 549.27615808 -107.765625 519.16796875 C-109.3791604 517.55794103 -110.94679872 515.91792637 -112.5 514.25 C-113.345625 513.425 -114.19125 512.6 -115.0625 511.75 C-118.02917282 508.70725865 -120.77035748 505.50493455 -123.5 502.25 C-118.49306266 503.09732786 -113.80751414 504.77709906 -109.02734375 506.43359375 C-102.53837927 508.64901799 -97.03170346 509.39201264 -90.1875 509.3125 C-89.07665039 509.30573242 -89.07665039 509.30573242 -87.94335938 509.29882812 C-86.12887101 509.28712175 -84.31442466 509.26918898 -82.5 509.25 C-83.55574219 508.66605469 -83.55574219 508.66605469 -84.6328125 508.0703125 C-96.06070479 501.59550146 -106.65011893 494.30415085 -116.26953125 485.328125 C-118.31782622 483.41973109 -120.42035597 481.61375274 -122.5625 479.8125 C-141.36790484 463.29677519 -154.25690932 441.22628687 -163.5 418.25 C-163.74838623 417.64510742 -163.99677246 417.04021484 -164.25268555 416.41699219 C-166.55810473 410.58189157 -168.06435131 404.58455274 -169.5625 398.5 C-169.81837891 397.49195313 -170.07425781 396.48390625 -170.33789062 395.4453125 C-173.26397726 383.68078935 -174.84730709 372.57843119 -174.75 360.4375 C-174.74250732 359.20209473 -174.73501465 357.96668945 -174.72729492 356.69384766 C-174.42665894 331.20193158 -168.17904883 305.80318793 -152.5 285.25 C-152.08621094 284.65445312 -151.67242187 284.05890625 -151.24609375 283.4453125 C-148.36256815 281.47135537 -145.17860695 281.85455691 -141.8125 281.9375 C-141.09078613 281.94587891 -140.36907227 281.95425781 -139.62548828 281.96289062 C-134.57857318 282.0769452 -130.30658318 282.82582721 -125.5 284.25 C-123.50037877 284.28892207 -121.49949803 284.29480668 -119.5 284.25 C-119.32984375 283.53457031 -119.1596875 282.81914062 -118.984375 282.08203125 C-118.18534154 278.79664367 -117.35033137 275.52248738 -116.5 272.25 C-116.23316406 271.21746094 -115.96632813 270.18492187 -115.69140625 269.12109375 C-108.63469795 244.0619385 -91.92306179 224.11398243 -72.25 207.625 C-65.02060235 201.41361957 -60.17841072 193.45864005 -55.5 185.25 C-56.23863281 185.1159375 -56.97726562 184.981875 -57.73828125 184.84375 C-67.42493627 182.76118768 -74.86655828 177.0269132 -81.01953125 169.35546875 C-83.58798704 165.33488247 -83.88194357 161.92880875 -83.5 157.25 C-87.79 157.25 -92.08 157.25 -96.5 157.25 C-96.5 155.27 -96.5 153.29 -96.5 151.25 C-99.47 151.25 -102.44 151.25 -105.5 151.25 C-105.5 152.24 -105.5 153.23 -105.5 154.25 C-120.01926204 153.5240369 -133.25369817 146.21042851 -142.9375 135.5625 C-143.71996094 134.65113281 -144.50242187 133.73976563 -145.30859375 132.80078125 C-147.32663706 130.2488118 -147.32663706 130.2488118 -149.6081543 128.73608398 C-152.61658969 124.78268385 -152.03186476 120.75417363 -151.9609375 115.921875 C-151.95956284 114.38916962 -151.95956284 114.38916962 -151.9581604 112.82550049 C-151.95211599 110.65673191 -151.93634496 108.48797201 -151.91162109 106.31933594 C-151.87559257 103.05371078 -151.87059878 99.78923878 -151.87109375 96.5234375 C-151.81483136 79.75035212 -150.65792241 64.29468232 -145.5 48.25 C-145.30664062 47.33347656 -145.11328125 46.41695312 -144.9140625 45.47265625 C-143.42086116 39.77214053 -140.76435989 37.42018142 -135.84667969 34.50512695 C-130.21669893 31.39539651 -124.442259 28.7090425 -118.5 26.25 C-117.66879639 25.90138916 -116.83759277 25.55277832 -115.98120117 25.19360352 C-89.38945436 14.10509099 -62.92396797 6.29517659 -34.35205078 2.63085938 C-32.26404093 2.35202909 -30.17940351 2.04761845 -28.09716797 1.72851562 C-18.66483673 0.3333399 -9.51868501 -0.07528751 0 0 Z " fill="#29588F" transform="translate(539.5,162.75)"/>
<path d="M0 0 C42.47746942 -0.87290892 83.26410207 4.38447719 123.88513184 17.0435791 C124.84677246 17.34296387 125.80841309 17.64234863 126.79919434 17.95080566 C129.62489256 18.84097677 132.44401424 19.74857658 135.26013184 20.6685791 C136.07401367 20.93348145 136.88789551 21.19838379 137.72644043 21.47131348 C143.98341629 23.58060928 149.9046853 26.25682495 155.88513184 29.0435791 C157.79291162 29.90533655 159.70178028 30.76468723 161.61169434 31.6217041 C179.47939496 39.69364771 196.40441327 48.41872824 212.88513184 59.0435791 C208.37632017 52.54802329 203.14928779 47.06581476 197.51013184 41.5435791 C196.67868652 40.72115723 195.84724121 39.89873535 194.99060059 39.0513916 C192.95997202 37.04410359 190.92480017 35.04167376 188.88513184 33.0435791 C189.54513184 32.7135791 190.20513184 32.3835791 190.88513184 32.0435791 C220.04354707 45.53095179 246.19718112 70.33277051 268.69763184 92.7310791 C269.40307129 93.4318457 270.10851074 94.1326123 270.83532715 94.85461426 C275.38827014 99.42152334 279.70863801 104.13080004 283.88513184 109.0435791 C284.44514893 109.70220947 285.00516602 110.36083984 285.58215332 111.03942871 C299.32320812 127.32592844 312.12232815 144.61911855 322.88513184 163.0435791 C320.86416049 154.84520267 318.12108729 147.11169075 314.94763184 139.2935791 C314.30277832 137.66742676 314.30277832 137.66742676 313.64489746 136.00842285 C311.39314097 130.41149245 308.94261387 125.23633281 305.88513184 120.0435791 C305.88513184 119.3835791 305.88513184 118.7235791 305.88513184 118.0435791 C322.8665251 125.15117583 335.93707697 152.77407349 344.60241699 167.82922363 C345.71978241 169.75813577 346.86151299 171.66770309 348.02185059 173.57092285 C356.91739273 188.45697207 364.09844351 204.70582908 369.88513184 221.0435791 C370.4422466 222.57359145 370.99955472 224.10353339 371.55700684 225.63342285 C384.2005048 260.65536666 389.75879789 296.15665446 393.88513184 333.0435791 C395.53513184 319.5135791 397.18513184 305.9835791 398.88513184 292.0435791 C399.54513184 292.3735791 400.20513184 292.7035791 400.88513184 293.0435791 C401.64279208 295.48833705 402.26496476 297.8638918 402.82263184 300.3560791 C402.99447998 301.1079248 403.16632812 301.85977051 403.34338379 302.63439941 C404.63635918 308.48788801 405.67045001 314.36813091 406.57263184 320.2935791 C406.69178955 321.07128662 406.81094727 321.84899414 406.93371582 322.65026855 C416.01028676 385.63577273 406.36343139 463.46083532 379.91320801 521.7220459 C378.84526333 524.13360751 377.8613831 526.56703314 376.89294434 529.0201416 C373.89896 536.57944187 370.53652099 543.96670682 367.12927246 551.34729004 C366.30464194 553.13442102 365.48555759 554.92412235 364.67224121 556.71643066 C355.59796969 576.58747275 342.79122052 588.62001805 325.88513184 602.0435791 C325.22513184 601.7135791 324.56513184 601.3835791 323.88513184 601.0435791 C324.32341309 600.35779785 324.76169434 599.6720166 325.21325684 598.9654541 C330.30203157 590.56690718 334.36550145 581.79619196 338.26013184 572.7935791 C339.0456543 571.0006543 339.0456543 571.0006543 339.8470459 569.17150879 C342.40153156 563.17554017 344.44332402 557.53321717 345.50891113 551.09777832 C345.96925409 548.58426398 346.88666348 546.38852967 347.88513184 544.0435791 C348.28716026 542.26204139 348.64069384 540.4689381 348.94763184 538.6685791 C349.11263184 537.71209473 349.27763184 536.75561035 349.44763184 535.7701416 C349.80705054 533.53019289 350.14156423 531.29126306 350.44763184 529.0435791 C350.88513184 526.0435791 350.88513184 526.0435791 351.88513184 523.0435791 C355.36657142 503.14221549 358.27637186 469.82605914 348.88513184 451.0435791 C348.60838623 451.74853516 348.33164062 452.45349121 348.04650879 453.17980957 C346.76826998 456.42794605 345.48299821 459.67325692 344.19763184 462.9185791 C343.76257324 464.02717285 343.32751465 465.1357666 342.87927246 466.2779541 C340.19085062 473.0487943 337.2605487 479.58804308 333.88513184 486.0435791 C333.55513184 486.7035791 333.22513184 487.3635791 332.88513184 488.0435791 C332.22513184 488.0435791 331.56513184 488.0435791 330.88513184 488.0435791 C330.65825684 489.1985791 330.43138184 490.3535791 330.19763184 491.5435791 C328.86330384 496.90948381 326.23878957 501.72436514 322.28356934 505.6217041 C320.69924379 507.04366956 320.69924379 507.04366956 319.94763184 509.4810791 C318.71662062 512.44998851 317.15432237 513.78676597 314.88513184 516.0435791 C313.70897119 517.6045162 312.5654264 519.1903281 311.44763184 520.7935791 C306.35354596 527.91568785 300.78237273 534.63651823 295.21472168 541.39074707 C294.13763671 542.7296867 293.12053436 544.1167281 292.12341309 545.51623535 C291.71478027 546.02025879 291.30614746 546.52428223 290.88513184 547.0435791 C290.22513184 547.0435791 289.56513184 547.0435791 288.88513184 547.0435791 C288.55513184 548.0335791 288.22513184 549.0235791 287.88513184 550.0435791 C287.55513184 550.0435791 287.22513184 550.0435791 286.88513184 550.0435791 C286.85746994 548.54368949 286.83844574 547.04364042 286.82263184 545.5435791 C286.81103027 544.7082666 286.79942871 543.8729541 286.78747559 543.0123291 C287.02928624 535.66128515 288.19299096 530.54186323 291.63513184 524.1060791 C291.9978418 523.40225098 292.36055176 522.69842285 292.73425293 521.9732666 C294.56776327 518.43855268 296.48758824 514.97397167 298.51013184 511.5435791 C301.80401852 505.76541425 303.83826465 499.42327222 306.08435059 493.18615723 C306.97012588 490.8161682 307.92745911 488.48144175 308.88903809 486.14123535 C310.83365584 481.30849841 312.36738402 476.43511384 313.76013184 471.4185791 C314.01133789 470.51599365 314.26254395 469.6134082 314.5213623 468.68347168 C315.049439 466.76989107 315.57363034 464.8552344 316.09411621 462.9395752 C316.61252976 461.04160557 317.13957299 459.14596727 317.67614746 457.25305176 C325.17931026 430.71736249 327.24701488 404.73327418 327.26013184 377.2935791 C327.26212585 376.18977905 327.26411987 375.085979 327.26617432 373.94873047 C327.26207591 353.91946039 325.79969385 334.54297617 321.76013184 314.9185791 C321.60829437 314.17211121 321.45645691 313.42564331 321.30001831 312.65655518 C314.93056698 281.5761326 303.85314723 251.97446399 288.86950684 224.00842285 C287.88513184 222.0435791 287.88513184 222.0435791 286.63513184 218.6373291 C285.34877508 215.45716933 284.72739771 213.99763689 281.88513184 212.0435791 C275.31926925 210.60147586 268.56486285 210.83052952 261.88513184 211.0435791 C261.88513184 208.0735791 261.88513184 205.1035791 261.88513184 202.0435791 C266.17513184 202.0435791 270.46513184 202.0435791 274.88513184 202.0435791 C268.60199421 192.68346566 262.21655264 183.62522564 254.88513184 175.0435791 C253.97277266 173.94667151 253.06136301 172.84897365 252.15075684 171.75061035 C242.63070213 160.35367647 232.35278233 149.50894141 220.88513184 140.0435791 C220.07044434 139.3629541 219.25575684 138.6823291 218.41638184 137.9810791 C215.59199463 135.64365521 212.74348484 133.33932366 209.88513184 131.0435791 C208.43687012 129.8679541 208.43687012 129.8679541 206.95935059 128.6685791 C148.30301611 82.16088823 66.1937198 57.47920939 -8.43518066 65.83654785 C-15.69320507 66.6998031 -22.90892298 67.82502989 -30.11486816 69.0435791 C-30.89797363 69.17135742 -31.6810791 69.29913574 -32.48791504 69.43078613 C-36.74217413 70.13811333 -40.9227276 71.03379342 -45.11486816 72.0435791 C-45.96033203 72.24708984 -46.8057959 72.45060059 -47.67687988 72.66027832 C-71.86370323 78.55210034 -94.65812525 86.96353963 -116.79455566 98.3795166 C-120.11486816 100.0435791 -120.11486816 100.0435791 -122.96252441 101.0045166 C-125.24934776 101.84686894 -125.24934776 101.84686894 -126.11877441 103.9342041 C-126.30311035 104.71279785 -126.48744629 105.4913916 -126.67736816 106.2935791 C-127.01768066 107.64322754 -127.01768066 107.64322754 -127.36486816 109.0201416 C-127.61236816 110.01787598 -127.85986816 111.01561035 -128.11486816 112.0435791 C-128.44486816 113.10318848 -128.77486816 114.16279785 -129.11486816 115.2545166 C-134.35275572 132.08508176 -134.48476744 149.0612079 -134.73986816 166.5435791 C-134.77814908 168.73499914 -134.81720623 170.92640577 -134.85705566 173.11779785 C-134.9519267 178.42627045 -135.03727574 183.73482726 -135.11486816 189.0435791 C-136.37316171 188.10411889 -137.63085602 187.16385606 -138.88830566 186.2232666 C-139.58875 185.69974609 -140.28919434 185.17622559 -141.01086426 184.63684082 C-142.94301453 183.17371566 -144.84370476 181.67782118 -146.73986816 180.1685791 C-165.33752315 166.31079339 -188.11124709 157.62048908 -211.11486816 155.4029541 C-214.11486816 155.0435791 -214.11486816 155.0435791 -215.11486816 154.0435791 C-217.49055336 153.9551824 -219.8369549 153.92827605 -222.21252441 153.94592285 C-222.9213829 153.9473378 -223.63024139 153.94875275 -224.36058044 153.95021057 C-226.63288529 153.95582468 -228.90509292 153.96837947 -231.17736816 153.9810791 C-232.71447612 153.98609229 -234.25158561 153.99065551 -235.78869629 153.99475098 C-239.56412458 154.00579868 -243.33947987 154.02307269 -247.11486816 154.0435791 C-247.11486816 154.3735791 -247.11486816 154.7035791 -247.11486816 155.0435791 C-248.5514267 155.12489374 -249.98931646 155.18291469 -251.42736816 155.2310791 C-252.22787598 155.26588379 -253.02838379 155.30068848 -253.85314941 155.33654785 C-256.65937307 154.97304738 -257.37959049 154.22667037 -259.11486816 152.0435791 C-259.77486816 151.0535791 -260.43486816 150.0635791 -261.11486816 149.0435791 C-262.10486816 149.0435791 -263.09486816 149.0435791 -264.11486816 149.0435791 C-264.77486816 148.3835791 -265.43486816 147.7235791 -266.11486816 147.0435791 C-265.78486816 146.7135791 -265.45486816 146.3835791 -265.11486816 146.0435791 C-266.21245323 145.20159603 -267.31822134 144.37027239 -268.42736816 143.5435791 C-269.04225098 143.0795166 -269.65713379 142.6154541 -270.29064941 142.1373291 C-272.18919821 140.78646627 -272.18919821 140.78646627 -275.11486816 141.0435791 C-276.98986816 139.3560791 -276.98986816 139.3560791 -279.11486816 137.0435791 C-279.96049316 136.1979541 -280.80611816 135.3523291 -281.67736816 134.4810791 C-282.48174316 133.6767041 -283.28611816 132.8723291 -284.11486816 132.0435791 C-285.04299316 131.3010791 -285.04299316 131.3010791 -285.98986816 130.5435791 C-287.11486816 129.0435791 -287.11486816 129.0435791 -286.95471191 126.85217285 C-285.88300633 123.26818999 -283.99775218 120.57691996 -281.80236816 117.6060791 C-281.35651367 116.99482178 -280.91065918 116.38356445 -280.45129395 115.75378418 C-263.73306203 93.17057198 -243.52369007 72.9410738 -221.11486816 56.0435791 C-220.43972168 55.53278809 -219.7645752 55.02199707 -219.06896973 54.49572754 C-217.00677227 52.94117739 -214.93773238 51.39637052 -212.86486816 49.8560791 C-212.22049805 49.37388916 -211.57612793 48.89169922 -210.91223145 48.39489746 C-206.3500151 45.0435791 -206.3500151 45.0435791 -204.11486816 45.0435791 C-205.58917123 49.36232559 -207.9286712 52.72502642 -210.61486816 56.3560791 C-214.06340739 61.14567914 -216.30621614 65.15197149 -217.11486816 71.0435791 C-216.45486816 71.0435791 -215.79486816 71.0435791 -215.11486816 71.0435791 C-215.11486816 70.3835791 -215.11486816 69.7235791 -215.11486816 69.0435791 C-213.38098145 67.69006348 -213.38098145 67.69006348 -210.93518066 66.1373291 C-210.03485107 65.56321289 -209.13452148 64.98909668 -208.20690918 64.39758301 C-207.22778564 63.78576172 -206.24866211 63.17394043 -205.23986816 62.5435791 C-204.24205322 61.915 -203.24423828 61.2864209 -202.21618652 60.63879395 C-194.0049301 55.50896531 -185.6557035 50.70177737 -177.12316895 46.13000488 C-175.26124425 45.12276383 -173.41875284 44.08795219 -171.57971191 43.03967285 C-159.56552161 36.33502325 -146.84712764 31.21520441 -134.11486816 26.0435791 C-133.35029297 25.73146484 -132.58571777 25.41935059 -131.79797363 25.09777832 C-96.61255293 10.87754114 -56.80822778 1.37116974 -18.80236816 0.4185791 C-18.1500119 0.40089478 -17.49765564 0.38321045 -16.82553101 0.36499023 C-12.63374202 0.25209787 -8.44185556 0.16063957 -4.24926758 0.08325195 C-2.8328179 0.05692389 -1.41639367 0.02918629 0 0 Z " fill="#D96B47" transform="translate(523.1148681640625,98.9564208984375)"/>
<path d="M0 0 C0.33 0 0.66 0 1 0 C1 139.59 1 279.18 1 423 C-132.32 423 -265.64 423 -403 423 C-403 422.67 -403 422.34 -403 422 C-401.71762451 421.97494385 -400.43524902 421.9498877 -399.11401367 421.92407227 C-386.64162874 421.67826539 -374.16980826 421.41228147 -361.69824219 421.12792969 C-358.40990684 421.05310014 -355.1216049 420.98119723 -351.83300781 420.91894531 C-312.84312681 420.15050721 -272.25896296 416.96960783 -234.57128906 406.6875 C-231.56580872 405.88390784 -228.54501571 405.16886515 -225.51586914 404.46118164 C-208.59953927 400.46731248 -192.60081257 393.70100119 -176.91015625 386.33203125 C-175.1919589 385.54558119 -173.45425667 384.79661168 -171.68359375 384.13671875 C-150.65842407 375.23086085 -130.48727811 360.55966204 -113 346 C-112.47970215 345.56993652 -111.9594043 345.13987305 -111.42333984 344.69677734 C-99.68149512 334.95988563 -88.64046955 324.70718198 -79.16015625 312.71484375 C-76.92783932 309.90930981 -74.59394516 307.21265564 -72.25 304.5 C-57.12937125 286.33652027 -44.55584672 265.57771841 -35 244 C-34.13023312 242.21334569 -33.26041565 240.42671103 -32.38598633 238.64233398 C-15.52538394 203.82000969 -6.73246136 162.00890118 -5.17578125 123.4921875 C-5 121 -5 121 -4 119 C-2.32970455 108.15612875 -2.43734948 96.88472625 -2 85.9375 C-1.93513397 84.34316132 -1.93513397 84.34316132 -1.86895752 82.71661377 C-0.76270517 55.15432377 -0.36231396 27.58052973 0 0 Z " fill="#FDFDFD" transform="translate(1023,601)"/>
<path d="M0 0 C135.63 0 271.26 0 411 0 C411 137.94 411 275.88 411 418 C410.67 418 410.34 418 410 418 C409.99120064 417.04687424 409.99120064 417.04687424 409.98222351 416.07449341 C409.67944478 339.21731139 409.67944478 339.21731139 401 263 C400.80680176 261.86062988 400.61360352 260.72125977 400.41455078 259.54736328 C395.14020072 228.90525204 386.03679587 198.0421517 371.125 170.625 C370.77550293 169.97781006 370.42600586 169.33062012 370.06591797 168.66381836 C369.36553228 167.36780004 368.66390918 166.07244952 367.9609375 164.77783203 C367.13049751 163.24143365 366.31393537 161.69754917 365.5 160.15234375 C358.72511379 147.39169161 350.93182096 135.35153246 342 124 C340.99839844 122.72576172 340.99839844 122.72576172 339.9765625 121.42578125 C338.65620322 119.76358982 337.32670003 118.10862198 335.98828125 116.4609375 C334.69340034 114.85823618 333.41868558 113.23896151 332.16796875 111.6015625 C321.55259458 97.99210843 308.75135421 85.42207898 295 75 C293.45119141 73.77796875 293.45119141 73.77796875 291.87109375 72.53125 C284.81621738 66.97854864 277.56426847 61.84508699 270 57 C269.06542969 56.38898437 268.13085938 55.77796875 267.16796875 55.1484375 C256.52040264 48.36637049 245.23805685 42.72747514 234 37 C232.89084229 36.43116089 232.89084229 36.43116089 231.75927734 35.85083008 C215.0629524 27.3705701 196.68391841 21.08079085 178.46875 16.8359375 C175.54355694 16.13099233 172.73125406 15.31162877 169.875 14.375 C164.80179294 12.78694026 159.66158361 12.15939003 154.39453125 11.52734375 C151 11 151 11 147.796875 10.0390625 C142.72403292 8.65081559 137.65271366 8.05671739 132.4375 7.4375 C131.37716553 7.30746582 130.31683105 7.17743164 129.22436523 7.04345703 C122.25973627 6.20946516 115.32301019 5.56506189 108.31640625 5.2109375 C106 5 106 5 105 4 C103.26034338 3.85216199 101.51488612 3.77213309 99.76977539 3.71875 C98.64273193 3.68198151 97.51568848 3.64521301 96.35449219 3.60733032 C95.11473633 3.57191132 93.87498047 3.53649231 92.59765625 3.5 C90.67022583 3.43949966 90.67022583 3.43949966 88.70385742 3.3777771 C85.21278131 3.26850075 81.7215469 3.16544109 78.23024368 3.06371307 C75.35257733 2.97913436 72.47502434 2.89100364 69.59746456 2.80288506 C46.4010231 2.09343622 23.20218216 1.48796587 0 1 C0 0.67 0 0.34 0 0 Z " fill="#FDFDFE" transform="translate(613,0)"/>
<path d="M0 0 C0.33 0 0.66 0 1 0 C1.02061493 0.68506622 1.04122986 1.37013245 1.06246948 2.07595825 C2.11954688 46.08842291 2.11954688 46.08842291 5 90 C5.09507843 91.02918549 5.09507843 91.02918549 5.19207764 92.0791626 C7.04561816 111.96254733 9.48697819 131.51911764 14 151 C14.21881836 151.97759277 14.43763672 152.95518555 14.66308594 153.96240234 C18.7164064 171.95526246 23.47336873 190.79472504 32.07910156 207.20654297 C33.54709183 210.06546568 34.73762962 213.04565676 36 216 C37.25359545 218.64436657 38.5596105 221.26091537 39.875 223.875 C40.22433594 224.57391357 40.57367188 225.27282715 40.93359375 225.99291992 C43.20860392 230.51618161 45.59035327 234.95226913 48.1875 239.30078125 C49 241 49 241 49 244 C49.66 244 50.32 244 51 244 C52.21678173 245.80839992 53.34559596 247.6760712 54.4375 249.5625 C61.52986353 261.48747844 70.06274326 272.40824284 79 283 C79.44424316 283.53447754 79.88848633 284.06895508 80.34619141 284.61962891 C90.89496495 297.31072627 102.03233081 308.75440714 115 319 C116.83374268 320.54117975 118.66707364 322.08284949 120.5 323.625 C125.08506974 327.40288574 129.87072919 330.56687895 134.98046875 333.58984375 C135.64691406 334.05519531 136.31335938 334.52054688 137 335 C137 335.66 137 336.32 137 337 C138.10408203 337.40605469 138.10408203 337.40605469 139.23046875 337.8203125 C141.87927212 338.94857571 143.96761067 340.22028833 146.3125 341.875 C149.78534788 344.24964598 153.2494554 346.20067801 157.04296875 348.00390625 C159.09014899 349.04588422 160.95790282 350.2360221 162.875 351.5 C166.65367571 353.92968103 170.56064971 355.50749128 174.75 357.09765625 C177.35487351 358.14231907 179.61968368 359.52034391 182 361 C190.88227056 365.15765856 200.3210133 368.16387636 209.63671875 371.1953125 C211.4216819 371.80308508 213.19312378 372.45077067 214.95703125 373.1171875 C242.12888687 383.30267936 271.38173229 387.19871765 300.17797852 389.29882812 C305.62506266 389.70222168 310.97889136 390.2218691 316.375 391.0625 C322.90960261 391.99851924 329.40167548 392.29820812 335.99609375 392.5234375 C337.16872269 392.56504501 338.34135162 392.60665253 339.54951477 392.64952087 C353.25229349 393.11131612 366.95902802 393.3293406 380.66766357 393.53222656 C384.10855414 393.58379885 387.54939087 393.63875282 390.99023438 393.69335938 C397.66011252 393.79856523 404.33003277 393.90061058 411 394 C411 394.33 411 394.66 411 395 C275.37 395 139.74 395 0 395 C0 264.65 0 134.3 0 0 Z " fill="#FDFDFD" transform="translate(0,629)"/>
<path d="M0 0 C134.97 0 269.94 0 409 0 C409 0.33 409 0.66 409 1 C407.20997559 1.029729 407.20997559 1.029729 405.38378906 1.06005859 C281.54332965 2.34689215 281.54332965 2.34689215 165.8359375 42.48046875 C163.01054185 43.99435154 160.14406162 45.3727991 157.25 46.75 C145.73534211 52.45505748 135.2539211 60.31362174 125 68 C124.27941406 68.53753906 123.55882813 69.07507813 122.81640625 69.62890625 C104.10798017 83.87477198 86.16462529 100.23480109 72.27294922 119.27832031 C70.91388732 121.11646848 69.51096367 122.91421061 68.09765625 124.7109375 C56.92877082 139.02891084 47.72273613 154.57558936 40 171 C39.34 171 38.68 171 38 171 C37.79375 171.886875 37.5875 172.77375 37.375 173.6875 C36.34884145 177.30667879 34.84293265 180.57526571 33.2265625 183.96875 C24.9894832 201.65831674 18.86900038 220.0568995 14.64697266 239.09228516 C14.01185775 241.94670723 13.34166233 244.7911913 12.66796875 247.63671875 C2.45338737 292.11096032 2.65344644 338.63119049 1 384 C0.67 384 0.34 384 0 384 C0 257.28 0 130.56 0 0 Z " fill="#FDFEFE" transform="translate(0,0)"/>
<path d="M0 0 C-0.31380615 0.54019775 -0.6276123 1.08039551 -0.95092773 1.63696289 C-12.84293426 22.50905954 -17.90814869 44.40469696 -18.31640625 68.2578125 C-18.3475779 69.80140945 -18.3475779 69.80140945 -18.37937927 71.37619019 C-18.44415263 74.62573325 -18.50341982 77.87534895 -18.5625 81.125 C-18.6057541 83.34375716 -18.64937045 85.56250729 -18.69335938 87.78125 C-18.79975864 93.18742583 -18.90165159 98.59367203 -19 104 C-20.25829354 103.06053979 -21.51598786 102.12027696 -22.7734375 101.1796875 C-23.47388184 100.65616699 -24.17432617 100.13264648 -24.89599609 99.59326172 C-26.82814636 98.13013656 -28.72883659 96.63424208 -30.625 95.125 C-48.3066508 81.94976215 -69.54805816 74.29038837 -91 70 C-90.69964844 69.40058594 -90.39929688 68.80117187 -90.08984375 68.18359375 C-89.23974915 66.48035761 -88.39923066 64.77234092 -87.5625 63.0625 C-86.14295535 60.28019248 -84.75052125 57.58772707 -83 55 C-82.34 55 -81.68 55 -81 55 C-81 54.34 -81 53.68 -81 53 C-80.34 53 -79.68 53 -79 53 C-78.773125 52.29359375 -78.54625 51.5871875 -78.3125 50.859375 C-76.73841761 47.43012407 -74.56460375 44.95676387 -72 42.25 C-71.50798096 41.72486816 -71.01596191 41.19973633 -70.5090332 40.65869141 C-63.722529 33.50066723 -56.49442007 27.20687966 -48.5 21.4375 C-47.88793701 20.99519043 -47.27587402 20.55288086 -46.64526367 20.09716797 C-42.25236693 17 -42.25236693 17 -40 17 C-40 16.34 -40 15.68 -40 15 C-6.47028689 -2.1567623 -6.47028689 -2.1567623 0 0 Z " fill="#EBA061" transform="translate(407,184)"/>
<path d="M0 0 C4.80533088 -0.1871492 8.24016188 -0.27045125 12.59765625 1.8671875 C16.06277119 8.79741739 15.2107667 17.25001815 12.84765625 24.4921875 C12.07681228 26.47329374 11.23579081 28.34091838 10.28515625 30.2421875 C-0.87397544 29.09766117 -9.24919796 22.93022708 -16.234375 14.3828125 C-19.09881799 9.96974838 -19.06954832 6.29672765 -18.71484375 1.2421875 C-14.40537318 0.90839725 -10.09584474 0.61104132 -5.78076172 0.36230469 C-3.85331547 0.25023856 -1.92661137 0.12560453 0 0 Z " fill="#57302D" transform="translate(474.71484375,317.7578125)"/>
<path d="M0 0 C2.64 0 5.28 0 8 0 C8 9.24 8 18.48 8 28 C12.29 28 16.58 28 21 28 C19.21301004 31.57397991 18.04019969 33.1574844 15.25 35.8125 C11.58895313 39.37333573 8.26863807 43.07763431 5 47 C1.23121414 45.44200307 -1.11271145 43.090634 -3.9375 40.1875 C-4.77152344 39.33542969 -5.60554687 38.48335937 -6.46484375 37.60546875 C-7.30144531 36.74566406 -8.13804687 35.88585937 -9 35 C-9.92941406 34.10925781 -10.85882812 33.21851563 -11.81640625 32.30078125 C-14 30 -14 30 -14 28 C-7.565 27.505 -7.565 27.505 -1 27 C-0.67 18.09 -0.34 9.18 0 0 Z " fill="#F8F9FB" transform="translate(627,515)"/>
<path d="M0 0 C3.3 0 6.6 0 10 0 C10 7.26 10 14.52 10 22 C13.96 22 17.92 22 22 22 C22 25.3 22 28.6 22 32 C14.74 32 7.48 32 0 32 C0 21.44 0 10.88 0 0 Z " fill="#E4EAF1" transform="translate(434,567)"/>
<path d="M0 0 C3.3 0 6.6 0 10 0 C10 7.26 10 14.52 10 22 C6.7 22 3.4 22 0 22 C0 14.74 0 7.48 0 0 Z " fill="#DCE4ED" transform="translate(434,490)"/>
<path d="M0 0 C2.97 0 5.94 0 9 0 C10.58937556 1.58937556 10.12981143 3.23899846 10.1328125 5.4375 C10.13474609 6.77941406 10.13474609 6.77941406 10.13671875 8.1484375 C10.13285156 9.08945312 10.12898437 10.03046875 10.125 11 C10.12886719 11.94101562 10.13273438 12.88203125 10.13671875 13.8515625 C10.13542969 14.74617188 10.13414062 15.64078125 10.1328125 16.5625 C10.13168457 17.38878906 10.13055664 18.21507812 10.12939453 19.06640625 C10 21 10 21 9 22 C6.03 22 3.06 22 0 22 C0 14.74 0 7.48 0 0 Z " fill="#F9F9FA" transform="translate(811,340)"/>
<path d="M0 0 C6.93 0 13.86 0 21 0 C21 3.3 21 6.6 21 10 C14.07 10 7.14 10 0 10 C0 6.7 0 3.4 0 0 Z " fill="#DCE3EC" transform="translate(735,589)"/>
<path d="M0 0 C6.93 0 13.86 0 21 0 C21 3.3 21 6.6 21 10 C14.07 10 7.14 10 0 10 C0 6.7 0 3.4 0 0 Z " fill="#DEE5EF" transform="translate(548,589)"/>
<path d="M0 0 C6.93 0 13.86 0 21 0 C21 3.3 21 6.6 21 10 C14.07 10 7.14 10 0 10 C0 6.7 0 3.4 0 0 Z " fill="#DFE6EE" transform="translate(473,589)"/>
<path d="M0 0 C3.3 0 6.6 0 10 0 C10 6.93 10 13.86 10 21 C6.7 21 3.4 21 0 21 C0 14.07 0 7.14 0 0 Z " fill="#DFE6ED" transform="translate(811,567)"/>
<path d="M0 0 C3.3 0 6.6 0 10 0 C10 6.93 10 13.86 10 21 C6.7 21 3.4 21 0 21 C0 14.07 0 7.14 0 0 Z " fill="#DFE5ED" transform="translate(811,454)"/>
<path d="M0 0 C6.93 0 13.86 0 21 0 C21 3.3 21 6.6 21 10 C17.68744674 10.02683436 14.37510817 10.0467578 11.0625 10.0625 C10.11697266 10.07087891 9.17144531 10.07925781 8.19726562 10.08789062 C6.84858398 10.09272461 6.84858398 10.09272461 5.47265625 10.09765625 C4.64000244 10.10289307 3.80734863 10.10812988 2.94946289 10.11352539 C1 10 1 10 0 9 C0 6.03 0 3.06 0 0 Z " fill="#DCE4ED" transform="translate(660,589)"/>
<path d="M0 0 C2.97 0 5.94 0 9 0 C9 6.93 9 13.86 9 21 C6.03 21 3.06 21 0 21 C0 14.07 0 7.14 0 0 Z " fill="#F0F3F7" transform="translate(434,529)"/>
<path d="M0 0 C2.97 0 5.94 0 9 0 C9 6.93 9 13.86 9 21 C6.03 21 3.06 21 0 21 C0 14.07 0 7.14 0 0 Z " fill="#ECF0F4" transform="translate(434,415)"/>
<path d="M0 0 C6.93 0 13.86 0 21 0 C21 2.97 21 5.94 21 9 C14.07 9 7.14 9 0 9 C0 6.03 0 3.06 0 0 Z " fill="#EBEEF2" transform="translate(748,301)"/>
<path d="M0 0 C6.93 0 13.86 0 21 0 C21 2.97 21 5.94 21 9 C14.07 9 7.14 9 0 9 C0 6.03 0 3.06 0 0 Z " fill="#EDF0F4" transform="translate(673,301)"/>
<path d="M0 0 C6.93 0 13.86 0 21 0 C21 2.97 21 5.94 21 9 C14.07 9 7.14 9 0 9 C0 6.03 0 3.06 0 0 Z " fill="#EDF1F5" transform="translate(636,301)"/>
<path d="M0 0 C6.93 0 13.86 0 21 0 C21 2.97 21 5.94 21 9 C14.07 9 7.14 9 0 9 C0 6.03 0 3.06 0 0 Z " fill="#ECF0F4" transform="translate(599,301)"/>
<path d="M0 0 C6.93 0 13.86 0 21 0 C21 2.97 21 5.94 21 9 C14.07 9 7.14 9 0 9 C0 6.03 0 3.06 0 0 Z " fill="#EBEFF3" transform="translate(562,301)"/>
<path d="M0 0 C6.93 0 13.86 0 21 0 C21 2.97 21 5.94 21 9 C14.07 9 7.14 9 0 9 C0 6.03 0 3.06 0 0 Z " fill="#EAEEF3" transform="translate(524,301)"/>
<path d="M0 0 C6.93 0 13.86 0 21 0 C21 2.97 21 5.94 21 9 C14.07 9 7.14 9 0 9 C0 6.03 0 3.06 0 0 Z " fill="#ECF0F4" transform="translate(487,301)"/>
<path d="M0 0 C6.93 0 13.86 0 21 0 C21 2.97 21 5.94 21 9 C14.07 9 7.14 9 0 9 C0 6.03 0 3.06 0 0 Z " fill="#EAEEF3" transform="translate(450,301)"/>
<path d="M0 0 C6.6 0 13.2 0 20 0 C20 2.97 20 5.94 20 9 C13.4 9 6.8 9 0 9 C0 6.03 0 3.06 0 0 Z " fill="#F0F3F6" transform="translate(711,301)"/>
<path d="M0 0 C6.6 0 13.2 0 20 0 C20 2.64 20 5.28 20 8 C13.4 8 6.8 8 0 8 C0 5.36 0 2.72 0 0 Z " fill="#F5F6F9" transform="translate(773,590)"/>
<path d="M0 0 C6.6 0 13.2 0 20 0 C20 2.64 20 5.28 20 8 C13.4 8 6.8 8 0 8 C0 5.36 0 2.72 0 0 Z " fill="#F4F6F9" transform="translate(698,590)"/>
<path d="M0 0 C6.6 0 13.2 0 20 0 C20 2.64 20 5.28 20 8 C13.4 8 6.8 8 0 8 C0 5.36 0 2.72 0 0 Z " fill="#F5F7F9" transform="translate(623,590)"/>
<path d="M0 0 C6.6 0 13.2 0 20 0 C20 2.64 20 5.28 20 8 C13.4 8 6.8 8 0 8 C0 5.36 0 2.72 0 0 Z " fill="#F3F6F8" transform="translate(586,590)"/>
<path d="M0 0 C6.6 0 13.2 0 20 0 C20 2.64 20 5.28 20 8 C13.4 8 6.8 8 0 8 C0 5.36 0 2.72 0 0 Z " fill="#F4F7F8" transform="translate(511,590)"/>
<path d="M0 0 C2.64 0 5.28 0 8 0 C8 6.6 8 13.2 8 20 C5.36 20 2.72 20 0 20 C0 13.4 0 6.8 0 0 Z " fill="#F5F7F8" transform="translate(812,530)"/>
<path d="M0 0 C2.64 0 5.28 0 8 0 C8 6.6 8 13.2 8 20 C5.36 20 2.72 20 0 20 C0 13.4 0 6.8 0 0 Z " fill="#F7F9F9" transform="translate(812,492)"/>
<path d="M0 0 C2.64 0 5.28 0 8 0 C8 6.6 8 13.2 8 20 C5.36 20 2.72 20 0 20 C0 13.4 0 6.8 0 0 Z " fill="#F8FAFB" transform="translate(435,453)"/>
<path d="M0 0 C2.64 0 5.28 0 8 0 C8 6.6 8 13.2 8 20 C5.36 20 2.72 20 0 20 C0 13.4 0 6.8 0 0 Z " fill="#F6F8F9" transform="translate(812,417)"/>
<path d="M0 0 C2.64 0 5.28 0 8 0 C8 6.6 8 13.2 8 20 C5.36 20 2.72 20 0 20 C0 13.4 0 6.8 0 0 Z " fill="#F7F9FA" transform="translate(812,379)"/>
<path d="M0 0 C4.62 0 9.24 0 14 0 C14.66 1.32 15.32 2.64 16 4 C16.66 4 17.32 4 18 4 C18.66 5.65 19.32 7.3 20 9 C13.4 9 6.8 9 0 9 C0 6.03 0 3.06 0 0 Z " fill="#EEEFF1" transform="translate(785,301)"/>
<path d="M0 0 C22.11 0 44.22 0 67 0 C67 0.33 67 0.66 67 1 C66.44671021 1.01030746 65.89342041 1.02061493 65.32336426 1.03123474 C59.48160356 1.14075467 53.63995318 1.25520356 47.79833984 1.37231445 C45.62811629 1.41520488 43.45786881 1.45690433 41.28759766 1.49731445 C29.94768136 1.70925105 18.64927971 2.00579725 7.33398438 2.79272461 C2.8835418 3.06941074 -1.54290414 3.11405004 -6 3.0625 C-6.78632813 3.05798828 -7.57265625 3.05347656 -8.3828125 3.04882812 C-10.25524426 3.03741086 -12.12763501 3.0195038 -14 3 C-14 2.67 -14 2.34 -14 2 C-9.38 2 -4.76 2 0 2 C0 1.34 0 0.68 0 0 Z " fill="#ECEEF0" transform="translate(342,0)"/>
<path d="M0 0 C0.33 0 0.66 0 1 0 C0.34 19.14 -0.32 38.28 -1 58 C-1.33 58 -1.66 58 -2 58 C-2 40.18 -2 22.36 -2 4 C-1.34 4 -0.68 4 0 4 C0 2.68 0 1.36 0 0 Z " fill="#E5EBEE" transform="translate(2,326)"/>
<path d="M0 0 C2.97 0 5.94 0 9 0 C10.58937556 1.58937556 10.12981143 3.23899846 10.1328125 5.4375 C10.13474609 6.77941406 10.13474609 6.77941406 10.13671875 8.1484375 C10.13285156 9.08945312 10.12898437 10.03046875 10.125 11 C10.12886719 11.94101562 10.13273438 12.88203125 10.13671875 13.8515625 C10.13542969 14.74617188 10.13414062 15.64078125 10.1328125 16.5625 C10.13168457 17.38878906 10.13055664 18.21507812 10.12939453 19.06640625 C10 21 10 21 9 22 C6.03 22 3.06 22 0 22 C0 14.74 0 7.48 0 0 Z M1 1 C1.33 7.27 1.66 13.54 2 20 C4.31 20 6.62 20 9 20 C9 13.73 9 7.46 9 1 C6.36 1 3.72 1 1 1 Z " fill="#ABBCD1" transform="translate(811,340)"/>
<path d="M0 0 C0.66 0.33 1.32 0.66 2 1 C-2.48713568 5.5896337 -6.98568224 9.98854579 -12 14 C-11.01 14.66 -10.02 15.32 -9 16 C-10.93232821 16.86580287 -12.87107194 17.71729941 -14.8125 18.5625 C-15.89144531 19.03816406 -16.97039063 19.51382813 -18.08203125 20.00390625 C-21 21 -21 21 -24 20 C-23.55720703 19.64284912 -23.11441406 19.28569824 -22.65820312 18.91772461 C-11.15099009 9.67009309 -11.15099009 9.67009309 0 0 Z " fill="#435B89" transform="translate(807,788)"/>
<path d="M0 0 C1.515625 1.3359375 1.515625 1.3359375 3 3 C2.57894737 7.42105263 2.57894737 7.42105263 1 9 C0.90078668 10.45562795 0.86920111 11.91599624 0.8671875 13.375 C0.86589844 14.27863281 0.86460937 15.18226563 0.86328125 16.11328125 C0.86714844 17.06589844 0.87101563 18.01851562 0.875 19 C0.87113281 19.92167969 0.86726562 20.84335938 0.86328125 21.79296875 C0.87148221 27.60744811 1.25551182 33.23317091 2 39 C-5.02306426 28.4654036 -1.90590637 11.8449718 0 0 Z " fill="#DB7A48" transform="translate(186,164)"/>
<path d="M0 0 C2.23828125 1.96875 2.23828125 1.96875 4.3125 4.5 C5.00988281 5.3353125 5.70726562 6.170625 6.42578125 7.03125 C6.94527344 7.6809375 7.46476563 8.330625 8 9 C7.67 9.66 7.34 10.32 7 11 C2.05 8.03 -2.9 5.06 -8 2 C-4.74666374 -0.16889084 -3.7754993 -0.59402712 0 0 Z " fill="#416088" transform="translate(729,148)"/>
<path d="M0 0 C4.97209562 1.76429199 9.43438061 4.3939166 14 7 C13.67 8.98 13.34 10.96 13 13 C8.11950075 9.0580583 3.9419417 4.88049925 0 0 Z " fill="#C18553" transform="translate(712,131)"/>
<path d="M0 0 C-0.33 1.32 -0.66 2.64 -1 4 C-0.01 4.33 0.98 4.66 2 5 C-3.94 5.33 -9.88 5.66 -16 6 C-15 4 -15 4 -12.12890625 2.9296875 C-10.95199219 2.58164062 -9.77507813 2.23359375 -8.5625 1.875 C-7.38816406 1.52179687 -6.21382812 1.16859375 -5.00390625 0.8046875 C-2 0 -2 0 0 0 Z " fill="#555A7D" transform="translate(677,885)"/>
<path d="M0 0 C2.97 0 5.94 0 9 0 C9 1.98 9 3.96 9 6 C6.03 5.67 3.06 5.34 0 5 C0 3.35 0 1.7 0 0 Z " fill="#E7E1DA" transform="translate(434,314)"/>
<path d="M0 0 C6.76594019 -0.11381955 13.28837062 0.11978631 20 1 C20 1.33 20 1.66 20 2 C8.64753762 2.86612792 -2.61619816 3.11858127 -14 3 C-14 2.67 -14 2.34 -14 2 C-9.38 2 -4.76 2 0 2 C0 1.34 0 0.68 0 0 Z " fill="#C5D1DC" transform="translate(342,0)"/>
<path d="M0 0 C3.45195767 1.4258086 5.1014256 3.09746334 7.25 6.125 C8.03117188 7.21167969 8.03117188 7.21167969 8.828125 8.3203125 C9.40820312 9.15175781 9.40820312 9.15175781 10 10 C9.01 10.495 9.01 10.495 8 11 C8 12.65 8 14.3 8 16 C5.5615972 13.5615972 4.41079629 11.0864312 2.875 8 C2.33617187 6.9275 1.79734375 5.855 1.2421875 4.75 C0 2 0 2 0 0 Z " fill="#DC9355" transform="translate(829,217)"/>
<path d="M0 0 C2.46968633 2.46968633 3.06997969 4.57488587 4.1875 7.875 C4.55230469 8.92429688 4.91710937 9.97359375 5.29296875 11.0546875 C5.98462433 13.93594885 6.03230681 15.27786612 5 18 C3.99466333 16.37829621 2.99588093 14.75252763 2 13.125 C1.443125 12.22007812 0.88625 11.31515625 0.3125 10.3828125 C-1 8 -1 8 -1 6 C-0.34 6 0.32 6 1 6 C0.67 4.02 0.34 2.04 0 0 Z " fill="#5A6986" transform="translate(841,246)"/>
<path d="M0 0 C-2.06899775 2.27271445 -3.83419205 3.55694402 -6.6875 4.6875 C-7.780625 5.120625 -8.87375 5.55375 -10 6 C-10 5.01 -10 4.02 -10 3 C-11.65 2.67 -13.3 2.34 -15 2 C-15 1.67 -15 1.34 -15 1 C-9.94997778 -0.03590199 -5.12583611 -0.10251672 0 0 Z " fill="#B45358" transform="translate(710,886)"/>
<path d="M0 0 C0.99 1.32 1.98 2.64 3 4 C0.48972295 6.5999298 -1.9863684 8.99091227 -5 11 C-5.66 11 -6.32 11 -7 11 C-5.22054913 6.95579349 -2.60470327 3.53921513 0 0 Z " fill="#47587A" transform="translate(698,731)"/>
<path d="M0 0 C4.75 1.875 4.75 1.875 7 3 C7.66 2.34 8.32 1.68 9 1 C13 6.75 13 6.75 13 9 C7.97290493 7.42903279 3.97133531 4.38006951 0 1 C0 0.67 0 0.34 0 0 Z " fill="#B1434A" transform="translate(282,859)"/>
<path d="M0 0 C1.4391134 0.28359887 2.87625518 0.57721399 4.3125 0.875 C5.11300781 1.03742187 5.91351563 1.19984375 6.73828125 1.3671875 C9 2 9 2 12 4 C9.9375 5.3125 9.9375 5.3125 7 6 C4.37284333 4.68642167 2.14763984 2.99909991 0 1 C0 0.67 0 0.34 0 0 Z " fill="#425380" transform="translate(422,908)"/>
<path d="M0 0 C-1.00193437 3.79303725 -1.81024227 6.71536341 -4 10 C-4 8.68 -4 7.36 -4 6 C-4.99 5.34 -5.98 4.68 -7 4 C-2.25 0 -2.25 0 0 0 Z " fill="#B66157" transform="translate(709,709)"/>
<path d="M0 0 C0.66 0 1.32 0 2 0 C2.33 1.65 2.66 3.3 3 5 C2.01 5.495 2.01 5.495 1 6 C0.53476937 7.89533342 0.53476937 7.89533342 0.375 10.0625 C0.25125 11.361875 0.1275 12.66125 0 14 C-0.66 14 -1.32 14 -2 14 C-1.03644647 4.58997722 -1.03644647 4.58997722 0 0 Z " fill="#A5695C" transform="translate(805,577)"/>
<path d="M0 0 C3.7952131 1.49097658 5.61042731 3.75700849 8 7 C7.01 7.66 6.02 8.32 5 9 C4.16094435 7.87926138 3.32892169 6.75325453 2.5 5.625 C2.0359375 4.99851562 1.571875 4.37203125 1.09375 3.7265625 C0 2 0 2 0 0 Z " fill="#45557F" transform="translate(275,836)"/>
<path d="M0 0 C0.66 0 1.32 0 2 0 C2 2.64 2 5.28 2 8 C1.34 7.67 0.68 7.34 0 7 C-0.66 7.99 -1.32 8.98 -2 10 C-1.85950482 8.52031676 -1.71245174 7.04125484 -1.5625 5.5625 C-1.48128906 4.73878906 -1.40007812 3.91507813 -1.31640625 3.06640625 C-1 1 -1 1 0 0 Z " fill="#68526F" transform="translate(118,581)"/>
<path d="M0 0 C-1.1858237 3.37503669 -2.27573689 5.64722731 -5 8 C-5 7.34 -5 6.68 -5 6 C-5.66 6 -6.32 6 -7 6 C-5.52522876 2.59668175 -4.14385429 0 0 0 Z " fill="#A04955" transform="translate(319,144)"/>
<path d="M0 0 C-0.33 1.32 -0.66 2.64 -1 4 C-0.01 4.33 0.98 4.66 2 5 C-0.64 5 -3.28 5 -6 5 C-5.6875 3.0625 -5.6875 3.0625 -5 1 C-2 0 -2 0 0 0 Z " fill="#475684" transform="translate(677,885)"/>
<path d="M0 0 C0.66 0 1.32 0 2 0 C1.34 3.96 0.68 7.92 0 12 C-1 8 -1 8 -1 5 C-1.99 5 -2.98 5 -4 5 C-2.71937515 3.2925002 -1.38232443 1.62626404 0 0 Z " fill="#735671" transform="translate(109,466)"/>
<path d="M0 0 C2.97 0 5.94 0 9 0 C9 0.66 9 1.32 9 2 C7.02 2.66 5.04 3.32 3 4 C2.01 2.68 1.02 1.36 0 0 Z " fill="#B25F58" transform="translate(550,730)"/>
<path d="M0 0 C3.63 0 7.26 0 11 0 C7 3 7 3 3.8125 2.8125 C2.884375 2.544375 1.95625 2.27625 1 2 C0.67 1.34 0.34 0.68 0 0 Z " fill="#445C84" transform="translate(507,744)"/>
<path d="M0 0 C1.32 0.66 2.64 1.32 4 2 C2.69593116 4.01920337 1.36176581 6.01924973 0 8 C-0.33 8 -0.66 8 -1 8 C-1.125 2.25 -1.125 2.25 0 0 Z " fill="#495F88" transform="translate(812,621)"/>
<path d="M0 0 C0.66 0.33 1.32 0.66 2 1 C0.88333826 4.34998521 0.25305075 4.79340222 -2.5625 6.6875 C-3.20316406 7.12449219 -3.84382812 7.56148437 -4.50390625 8.01171875 C-4.99761719 8.33785156 -5.49132812 8.66398438 -6 9 C-4.68775452 5.06326356 -3.08089673 2.77280706 0 0 Z " fill="#BD664E" transform="translate(185,163)"/>
<path d="M0 0 C4.875 2.75 4.875 2.75 6 5 C3.03 4.67 0.06 4.34 -3 4 C-2.01 2.68 -1.02 1.36 0 0 Z " fill="#AB474F" transform="translate(451,929)"/>
<path d="M0 0 C3.16115776 1.36983503 3.9927092 1.9890638 6 5 C5.01 5.66 4.02 6.32 3 7 C0 2.25 0 2.25 0 0 Z " fill="#A28168" transform="translate(829,217)"/>
<path d="M0 0 C1.15392455 2.3078491 1.53437166 4.47230331 2 7 C1.34 7 0.68 7 0 7 C0 7.66 0 8.32 0 9 C-0.99 9.33 -1.98 9.66 -3 10 C-2.69201674 8.51988629 -2.378482 7.04092675 -2.0625 5.5625 C-1.88847656 4.73878906 -1.71445312 3.91507813 -1.53515625 3.06640625 C-1 1 -1 1 0 0 Z " fill="#5C5371" transform="translate(308,161)"/>
<path d="M0 0 C0.99 0.495 0.99 0.495 2 1 C2.40729228 3.32156597 2.74438677 5.6568787 3 8 C2.01 8 1.02 8 0 8 C0 5.36 0 2.72 0 0 Z " fill="#C68053" transform="translate(922,391)"/>
<path d="M0 0 C0.66 0.33 1.32 0.66 2 1 C0.02 3.31 -1.96 5.62 -4 8 C-4.33 7.34 -4.66 6.68 -5 6 C-3.35 4.02 -1.7 2.04 0 0 Z " fill="#DC9B5B" transform="translate(473,362)"/>
<path d="M0 0 C0.66 0.33 1.32 0.66 2 1 C1 4 1 4 -0.875 5.25 C-3 6 -3 6 -6 5 C-4.02 3.35 -2.04 1.7 0 0 Z " fill="#525D82" transform="translate(789,803)"/>
<path d="M0 0 C0 3 0 3 -1.5 4.6875 C-1.995 5.120625 -2.49 5.55375 -3 6 C-3.99 5.01 -4.98 4.02 -6 3 C-4.02 2.01 -2.04 1.02 0 0 Z " fill="#BA5B52" transform="translate(830,788)"/>
<path d="M0 0 C1.85776765 3.13498292 2.20140476 5.37471432 2 9 C0.68 7.68 -0.64 6.36 -2 5 C-1.34 3.35 -0.68 1.7 0 0 Z " fill="#8E4655" transform="translate(179,753)"/>
<path d="M0 0 C0.99 0.33 1.98 0.66 3 1 C1.38405168 3.04119788 -0.2856382 5.04072937 -2 7 C-2.66 7 -3.32 7 -4 7 C-2.79618552 4.50638429 -1.54571278 2.31856917 0 0 Z " fill="#506586" transform="translate(880,670)"/>
<path d="M0 0 C0.33 0.99 0.66 1.98 1 3 C0.67 3.33 0.34 3.66 0 4 C-1.52519276 3.91062197 -3.04681929 3.75462854 -4.5625 3.5625 C-5.80193359 3.40974609 -5.80193359 3.40974609 -7.06640625 3.25390625 C-7.70449219 3.17011719 -8.34257812 3.08632813 -9 3 C-9 2.67 -9 2.34 -9 2 C-7.329375 2.061875 -7.329375 2.061875 -5.625 2.125 C-1.95633975 2.41121859 -1.95633975 2.41121859 0 0 Z " fill="#C38B66" transform="translate(420,444)"/>
</svg>
